<?xml version="1.0" encoding="UTF-8"?>
<svg id="_レイヤー_1" data-name="レイヤー 1" xmlns="http://www.w3.org/2000/svg" viewBox="0 0 256.55 47">
  <path d="m41.1,24.3l5.85,4.25c-.45.65-1.05.9-2.45.9H.25l-.25-1h11.85v-15.3H2.05l-.25-1h10.05V.4l7.45.7c-.1.75-.6,1.15-2.1,1.35v9.7h12.15V.4l7.55.7c-.1.75-.6,1.15-2.15,1.35v9.7h2.45l2.85-3.9,5.35,4.05c-.4.6-1.05.85-2.45.85h-8.2v15.3h3.2l3.15-4.15Zm-20.5,10.7c-.2.4-.5.65-1.15.65-.2,0-.45-.05-.75-.1-3.8,4.2-10.35,8.85-17.65,11.4l-.4-.65c5.8-3.85,11.2-10.1,13.7-14.85l6.25,3.55Zm-3.4-21.85v15.3h12.15v-15.3h-12.15Zm10.9,19.6c13,2.5,17.1,7.85,17.1,11.2,0,1.75-1.1,2.95-2.6,2.95-.6,0-1.25-.15-1.9-.55-2.4-4.6-7.9-10.1-12.9-13.1l.3-.5Z"/>
  <path d="m64.6,23.8c-2.4,5.8-4.4,11.7-4.4,13.25,0,.75.55,2,.55,3.35,0,1.25-.5,2.85-2.1,2.85-2.6,0-5.45-4.4-5.45-12.5,0-6.95,1.55-13.3,2.6-18.25.15-.7.2-1.35.2-2.05,0-.65-.05-1.35-.1-2-.15-1.7-1.35-3.45-2.25-3.55l-.05-.2c.2-.35.8-.45,1.35-.45,5,0,6.65,4.1,6.65,5.9,0,1.65-.5,2.4-1,3.35-1.4,3.05-3.15,8.15-3.4,13.1-.05.6-.05,1.2-.05,1.75,0,2.2.25,4,.6,4.7l.35-.1c1.45-2.05,4-6.65,5.65-9.6l.85.45Zm9.85-.6c-2.4,2.7-3.5,5.35-3.5,7.45,0,3.55,2.75,5.05,8.9,5.05,3.7,0,6.8-.4,8.05-.95,3.15.65,4.55,1.8,4.55,3.5,0,1.95-3.1,2.3-10.75,2.3-9.15,0-13.7-2.6-13.7-8.45,0-3.1,2.15-6.5,5.65-9.5l.8.6Zm-5.6-12.5c1.5.4,3.35.4,4.8.4,2.35,0,6.9-.95,9.1-1.85.85-.35,2-1.15,2.5-1.15,3.2,0,5.15,1.3,5.15,2.9,0,1.3-1.75,1.85-3.7,2.35-3.35.75-7.25,1.2-9.9,1.2s-5.7-.5-8.2-3.25l.25-.6Z"/>
  <path d="m99.05,34.85c7.25,1.75,12.25,5.4,12.25,8.95,0,1.95-1.45,3.1-3,3.1-1,0-2.05-.5-2.75-1.6-.75-3.25-2.9-7.4-6.95-9.8l.45-.65Z"/>
  <path d="m183.35,13.65l5.95,4.15c-.4.65-1.05.9-2.45.9h-16.3c-.15.45-.55.7-1.85.85v11.7c0,3.5-.85,5.8-6.95,6.3,0-3.5-1.5-4.35-5.2-4.75v-.65h5.95c.7,0,.85-.25.85-.85v-12.6h-20.45l-.3-1h8.4V4.45l7,.6c-.1.7-.5,1-1.9,1.25v11.4h7.25V0l7.5.75c-.1.7-.6,1.05-2.1,1.3v5.95h7.5l3.2-4,5.9,4.1c-.4.65-1.1.9-2.4.9h-14.2v8.7h11.4l3.2-4.05Zm-39.65,20.4c4.2-3.65,7.8-9.45,9.4-13.7l6.5,3.35c-.25.5-.7.75-1.9.6-2.9,3.75-7.85,7.95-13.6,10.4l-.4-.65Zm39-2.9c-.3.4-.65.6-1.3.6-.3,0-.6,0-1-.1-9.95,12.05-20.25,14.5-34.65,15.35l-.1-.85c12.75-2.3,22.75-5.95,30.55-18.55l6.5,3.55Zm-7.7-10.05c10.15,2.1,13.35,6.55,13.35,9.5,0,1.8-1.1,3.05-2.55,3.05-.65,0-1.3-.25-2-.75-1.4-3.95-5.4-8.7-9.15-11.35l.35-.45Z"/>
  <path d="m201.85,5.15c.2-1.45,2.05-2.5,3.55-2.5,2.65,0,6.05,1.4,6.05,3.15,0,.65-.35,1.15-.5,1.4-.3.6-.35,1.35-.5,2.85,1.8-.4,3.1-.8,3.95-1.65.4-.4.8-.95,1-.95,1.95,0,4.55,1.4,4.5,2.55,0,1.55-1.1,2.2-3.45,2.9-1.9.55-4.85,1.1-6.45,1.35-.25,2.7-.55,6-.75,7.8.15.35.3,1.1.3,1.65,0,2.65-1.2,6.45-2.5,8.45-.5.9-1.05,2.4-1.05,3.4,0,3,2.85,3.6,8.8,3.6,8.4,0,12.5-1.75,12.5-5.4,0-2.45-.55-5.45-2.25-9.3-1.15-2.45-2.2-5.35-2.2-8.1,0-3.85,2.25-6.5,5.95-6.5,4.95,0,9.05,4.45,9.05,8.05,0,2-.55,3.85-2.5,3.85-1.3,0-1.4-1.15-2.7-1.45-.15-.05-.4-.05-.65-.05-.85,0-2.25.2-4.1.5l-.2-.65c1.95-.55,3.45-1.45,3.95-1.95.25-.25.4-.6.4-.95,0-1.1-1.3-4.55-4.65-4.55-1.6,0-3.1.75-3.1,3.8,0,4.45,3.2,8.4,4.4,10.4,1.35,2.3,3,5,3,7.9,0,6.65-4.45,9.15-16.8,9.15-9.3,0-13.5-1.75-13.5-6.4,0-.85.35-2.15.65-2.7-.45.2-.9.3-1.65.3-3.2,0-5.6-2.3-5.6-6.85,0-5.9,3.65-9.05,8.05-9.05,1.05,0,1.95.15,2.7.6.15-1.4.3-3.55.3-5.1-1.45.15-3.05.25-4.3.25-3.95,0-5.5-2-6.25-4.35l.45-.55c1.05,1,2.35,1.55,5.5,1.55,1.35,0,3.15-.2,4.65-.5,0-3.95,0-6.05-2.45-6.05-.5,0-.95.15-1.3.35l-.3-.25Zm-1,26.45c2.25,0,3.3-1.3,4-4.15.3-.8.45-1.95.45-2.6,0-1.7-.8-2.8-2.65-2.8-2.3,0-4.2,2.2-4.3,5.25-.15,2.85.9,4.3,2.5,4.3Z"/>
  <path d="m249.8,33.4c3.75,0,6.75,3,6.75,6.7s-3,6.75-6.75,6.75-6.7-3.05-6.7-6.75,3.1-6.7,6.7-6.7Zm5.2,6.7c0-2.85-2.35-5.2-5.2-5.2s-5.2,2.35-5.2,5.2,2.35,5.2,5.2,5.2,5.2-2.45,5.2-5.2Z"/>
</svg>